<svg width="50" height="50" viewBox="0 0 50 50" fill="none" xmlns="http://www.w3.org/2000/svg">
<rect width="50" height="50" fill="#eee4da"/>
<path d="M11.9474 43L11.9474 37.4602L24.8913 25.4751C25.9922 24.4098 26.9155 23.451 27.6612 22.5987C28.4188 21.7465 28.9929 20.9119 29.3835 20.0952C29.7742 19.2666 29.9695 18.3729 29.9695 17.4141C29.9695 16.3487 29.7268 15.4313 29.2415 14.6619C28.7562 13.8807 28.0933 13.2829 27.2528 12.8686C26.4124 12.4425 25.4595 12.2294 24.3942 12.2294C23.2815 12.2294 22.3108 12.4543 21.4822 12.9041C20.6536 13.3539 20.0144 13.9991 19.5646 14.8395C19.1148 15.6799 18.8899 16.6802 18.8899 17.8402H11.5923C11.5923 15.4609 12.1309 13.3954 13.2081 11.6435C14.2853 9.89157 15.7945 8.53622 17.7358 7.57741C19.6771 6.61861 21.9143 6.1392 24.4474 6.1392C27.0516 6.1392 29.3184 6.60085 31.2479 7.52415C33.1892 8.43561 34.6984 9.70218 35.7756 11.3239C36.8528 12.9455 37.3913 14.804 37.3913 16.8991C37.3913 18.2723 37.1191 19.6276 36.5746 20.9652C36.0419 22.3028 35.089 23.7884 33.7159 25.4219C32.3428 27.0436 30.4074 28.9908 27.9098 31.2635L22.6009 36.4659V36.7145H37.8707V43H11.9474Z" fill="#8F7A66"/>
</svg>
